<?xml version="1.0" encoding="utf-8"?>
<!-- Generator: Adobe Illustrator 16.0.0, SVG Export Plug-In . SVG Version: 6.00 Build 0)  -->
<!DOCTYPE svg PUBLIC "-//W3C//DTD SVG 1.1//EN" "http://www.w3.org/Graphics/SVG/1.1/DTD/svg11.dtd" [
	<!ENTITY st0 "fill:#B4B5B7;">
	<!ENTITY st1 "fill:none;">
]>
<svg version="1.1" id="Layer_1" xmlns:serif="http://www.serif.com/"
	 xmlns="http://www.w3.org/2000/svg" xmlns:xlink="http://www.w3.org/1999/xlink" x="0px" y="0px" width="200px" height="42.577px"
	 viewBox="0 79.575 200 42.577" style="enable-background:new 0 79.575 200 42.577;" xml:space="preserve">
<rect id="icon-signet-eosdac-explorer-225x48" y="79.575" style="&st1;" width="200" height="40.851"/>
<g>
	<path style="&st0;" d="M56.659,106.283c-0.588,0-1.127-0.109-1.621-0.328c-0.493-0.219-0.918-0.523-1.276-0.914
		s-0.636-0.854-0.835-1.392c-0.2-0.538-0.299-1.128-0.299-1.771v-0.357c0-0.692,0.104-1.32,0.312-1.882
		c0.208-0.563,0.489-1.042,0.844-1.438c0.354-0.396,0.762-0.702,1.225-0.918c0.463-0.216,0.952-0.324,1.467-0.324
		c0.57,0,1.078,0.103,1.521,0.308c0.443,0.205,0.816,0.49,1.118,0.856c0.302,0.365,0.531,0.8,0.686,1.305
		c0.155,0.504,0.232,1.055,0.232,1.654v0.606h-6.416v0.191c0,0.493,0.075,0.957,0.225,1.392c0.15,0.437,0.36,0.813,0.631,1.135
		s0.596,0.575,0.973,0.761c0.377,0.186,0.795,0.278,1.254,0.278c0.532,0,1.001-0.097,1.409-0.291
		c0.407-0.193,0.777-0.504,1.109-0.931l0.624,0.474c-0.15,0.216-0.323,0.421-0.52,0.615c-0.197,0.194-0.425,0.362-0.685,0.507
		c-0.261,0.145-0.554,0.258-0.881,0.341C57.429,106.242,57.063,106.283,56.659,106.283z M56.476,97.807
		c-0.377,0-0.726,0.072-1.047,0.215c-0.321,0.145-0.605,0.35-0.852,0.615c-0.246,0.267-0.449,0.586-0.607,0.96
		c-0.157,0.374-0.264,0.788-0.32,1.242h5.394v-0.107c-0.011-0.377-0.071-0.742-0.183-1.093c-0.11-0.353-0.272-0.664-0.486-0.936
		c-0.213-0.271-0.478-0.488-0.793-0.652C57.265,97.889,56.897,97.807,56.476,97.807z"/>
	<path style="&st0;" d="M61.42,101.488c0-0.654,0.096-1.258,0.287-1.812c0.192-0.554,0.461-1.033,0.811-1.434
		c0.349-0.402,0.77-0.716,1.264-0.943c0.493-0.227,1.042-0.341,1.645-0.341c0.615,0,1.171,0.114,1.667,0.341
		c0.496,0.228,0.918,0.542,1.268,0.943c0.349,0.401,0.617,0.88,0.806,1.434c0.188,0.554,0.282,1.157,0.282,1.812v0.274
		c0,0.653-0.094,1.258-0.282,1.812c-0.189,0.555-0.457,1.031-0.806,1.434c-0.35,0.401-0.77,0.715-1.264,0.939
		c-0.493,0.225-1.044,0.336-1.654,0.336s-1.161-0.111-1.654-0.336c-0.493-0.225-0.915-0.538-1.268-0.939
		c-0.351-0.402-0.623-0.879-0.814-1.434c-0.19-0.554-0.287-1.158-0.287-1.812V101.488z M62.418,101.763
		c0,0.493,0.066,0.962,0.2,1.408c0.133,0.446,0.327,0.837,0.582,1.172c0.255,0.335,0.571,0.603,0.947,0.803
		c0.377,0.199,0.809,0.299,1.297,0.299s0.918-0.1,1.292-0.299c0.375-0.2,0.688-0.468,0.944-0.803
		c0.254-0.335,0.448-0.726,0.581-1.172c0.134-0.446,0.2-0.915,0.2-1.408v-0.274c0-0.482-0.066-0.946-0.2-1.392
		c-0.133-0.446-0.327-0.838-0.581-1.176c-0.255-0.338-0.572-0.607-0.952-0.81c-0.379-0.203-0.813-0.303-1.301-0.303
		c-0.481,0-0.91,0.101-1.283,0.303c-0.375,0.203-0.688,0.472-0.944,0.81c-0.254,0.338-0.449,0.73-0.582,1.176
		c-0.133,0.446-0.2,0.91-0.2,1.392V101.763z"/>
	<path style="&st0;" d="M76.888,103.832c0-0.183-0.032-0.365-0.095-0.549c-0.064-0.183-0.183-0.355-0.357-0.52
		c-0.175-0.162-0.419-0.314-0.731-0.457c-0.313-0.141-0.719-0.264-1.218-0.369c-0.499-0.105-0.944-0.228-1.334-0.367
		c-0.391-0.137-0.72-0.305-0.989-0.502c-0.268-0.197-0.472-0.432-0.61-0.703c-0.139-0.271-0.208-0.589-0.208-0.956
		c0-0.332,0.074-0.647,0.221-0.947c0.147-0.299,0.357-0.56,0.631-0.781c0.275-0.221,0.607-0.397,0.998-0.528
		c0.391-0.13,0.83-0.195,1.317-0.195c0.521,0,0.988,0.068,1.401,0.204c0.413,0.135,0.762,0.324,1.047,0.565
		c0.285,0.241,0.503,0.525,0.652,0.852c0.149,0.327,0.224,0.682,0.224,1.064h-0.997c0-0.233-0.052-0.46-0.154-0.682
		c-0.103-0.222-0.252-0.417-0.448-0.586c-0.198-0.169-0.441-0.306-0.732-0.411s-0.622-0.158-0.993-0.158
		c-0.388,0-0.719,0.047-0.993,0.142c-0.274,0.093-0.499,0.215-0.673,0.365c-0.174,0.15-0.302,0.318-0.382,0.503
		c-0.08,0.186-0.121,0.373-0.121,0.561c0,0.2,0.031,0.381,0.092,0.545c0.061,0.163,0.179,0.315,0.354,0.457
		c0.174,0.141,0.417,0.271,0.731,0.391c0.313,0.119,0.722,0.236,1.226,0.354c0.543,0.127,1.011,0.269,1.404,0.424
		c0.394,0.154,0.719,0.339,0.977,0.552c0.258,0.214,0.449,0.458,0.573,0.731c0.125,0.274,0.188,0.592,0.188,0.952
		c0,0.371-0.078,0.71-0.232,1.018c-0.156,0.308-0.377,0.571-0.666,0.79c-0.288,0.219-0.637,0.389-1.047,0.512
		c-0.41,0.121-0.867,0.182-1.372,0.182c-0.57,0-1.075-0.072-1.512-0.219c-0.438-0.148-0.806-0.346-1.105-0.596
		c-0.299-0.249-0.525-0.535-0.677-0.859s-0.229-0.661-0.229-1.01h0.998c0.022,0.354,0.113,0.65,0.274,0.885
		c0.161,0.236,0.36,0.424,0.599,0.564c0.238,0.142,0.503,0.243,0.794,0.305c0.291,0.061,0.577,0.091,0.859,0.091
		c0.377,0,0.71-0.044,0.998-0.133c0.289-0.089,0.531-0.208,0.728-0.357c0.197-0.149,0.345-0.321,0.444-0.515
		C76.838,104.245,76.888,104.043,76.888,103.832z"/>
	<path style="&st0;" d="M79.905,106.117V94.016h3.723c0.814,0,1.561,0.141,2.24,0.42c0.678,0.279,1.26,0.673,1.746,1.18
		c0.484,0.507,0.863,1.116,1.134,1.825s0.407,1.496,0.407,2.36v0.549c0,0.863-0.134,1.649-0.402,2.355
		c-0.269,0.707-0.648,1.313-1.139,1.82c-0.491,0.508-1.077,0.899-1.758,1.177c-0.682,0.276-1.433,0.415-2.252,0.415H79.905z
		 M82.398,96.036v8.08h1.205c0.986,0,1.737-0.326,2.252-0.978c0.516-0.651,0.772-1.58,0.772-2.788v-0.565
		c0-1.23-0.254-2.163-0.764-2.796c-0.51-0.635-1.255-0.953-2.236-0.953H82.398z"/>
	<path style="&st0;" d="M97.624,103.624h-4.371l-0.832,2.493H89.77l4.505-12.101h2.311l4.53,12.101h-2.651L97.624,103.624z
		 M93.926,101.604h3.025l-1.521-4.529L93.926,101.604z"/>
	<path style="&st0;" d="M111.57,102.087c-0.045,0.615-0.184,1.181-0.416,1.695c-0.232,0.516-0.553,0.958-0.964,1.325
		c-0.41,0.369-0.907,0.656-1.491,0.865c-0.585,0.207-1.252,0.311-2,0.311c-0.775,0-1.473-0.133-2.09-0.402s-1.141-0.655-1.57-1.159
		c-0.43-0.505-0.76-1.116-0.988-1.833c-0.231-0.718-0.346-1.523-0.346-2.415v-0.797c0-0.892,0.119-1.699,0.357-2.419
		c0.238-0.72,0.574-1.333,1.01-1.836c0.436-0.505,0.963-0.892,1.583-1.164s1.313-0.408,2.077-0.408c0.754,0,1.421,0.106,2,0.32
		c0.578,0.213,1.07,0.51,1.475,0.889s0.721,0.832,0.947,1.355c0.229,0.523,0.371,1.093,0.434,1.708h-2.494
		c-0.028-0.361-0.09-0.679-0.188-0.956c-0.097-0.278-0.236-0.51-0.42-0.699c-0.183-0.188-0.418-0.331-0.706-0.428
		s-0.638-0.146-1.048-0.146c-0.842,0-1.469,0.306-1.881,0.919c-0.413,0.612-0.62,1.561-0.62,2.846v0.814
		c0,0.626,0.046,1.175,0.138,1.646s0.235,0.864,0.432,1.181c0.197,0.315,0.452,0.552,0.764,0.711
		c0.314,0.156,0.692,0.236,1.135,0.236c0.395,0,0.732-0.045,1.02-0.133c0.285-0.09,0.523-0.223,0.715-0.404
		c0.19-0.18,0.338-0.405,0.443-0.677s0.172-0.587,0.199-0.947H111.57z"/>
	<path style="&st0;" d="M124.544,100.117h-6.067v5.552h6.915v0.448h-7.363V94.016h7.363v0.449h-6.915v5.203h6.067V100.117z"/>
	<path style="&st0;" d="M131.135,99.593l3.906-5.577h0.564l-4.188,5.926l4.347,6.175h-0.557l-4.072-5.826l-4.089,5.826h-0.54
		l4.346-6.175l-4.188-5.926h0.565L131.135,99.593z"/>
	<path style="&st0;" d="M138.332,101.006v5.111h-0.449V94.016h3.781c0.645,0,1.209,0.085,1.697,0.254
		c0.486,0.169,0.895,0.407,1.221,0.715c0.326,0.307,0.574,0.679,0.74,1.114s0.249,0.918,0.249,1.45c0,0.532-0.082,1.011-0.245,1.438
		c-0.164,0.427-0.408,0.79-0.735,1.089c-0.327,0.299-0.735,0.528-1.222,0.69c-0.488,0.16-1.057,0.24-1.705,0.24H138.332z
		 M138.332,100.558h3.332c0.611,0,1.135-0.079,1.572-0.237c0.438-0.158,0.796-0.373,1.076-0.644
		c0.279-0.271,0.484-0.589,0.614-0.952c0.13-0.363,0.196-0.75,0.196-1.16c0-0.426-0.066-0.828-0.196-1.205
		c-0.13-0.376-0.335-0.705-0.614-0.984c-0.28-0.28-0.639-0.501-1.076-0.665c-0.438-0.163-0.961-0.245-1.572-0.245h-3.332V100.558z"
		/>
	<path style="&st0;" d="M148.563,105.669h6.208v0.448h-6.665V94.016h0.457V105.669z"/>
	<path style="&st0;" d="M164.92,100.973c0,0.793-0.107,1.514-0.32,2.165s-0.518,1.21-0.914,1.675
		c-0.396,0.466-0.875,0.828-1.434,1.084c-0.561,0.258-1.189,0.387-1.887,0.387c-0.693,0-1.32-0.129-1.883-0.387
		c-0.563-0.256-1.043-0.618-1.441-1.084c-0.399-0.465-0.707-1.023-0.923-1.675s-0.324-1.372-0.324-2.165v-1.812
		c0-0.786,0.106-1.506,0.32-2.161c0.214-0.654,0.519-1.213,0.914-1.678c0.396-0.466,0.876-0.827,1.438-1.085
		c0.562-0.258,1.189-0.387,1.883-0.387c0.697,0,1.327,0.128,1.89,0.387c0.563,0.258,1.042,0.619,1.438,1.085
		c0.396,0.465,0.701,1.024,0.918,1.678c0.217,0.654,0.324,1.375,0.324,2.161V100.973z M164.471,99.145
		c0-0.709-0.093-1.36-0.278-1.953s-0.454-1.104-0.806-1.534c-0.353-0.429-0.783-0.763-1.293-1.001s-1.092-0.357-1.744-0.357
		c-0.648,0-1.227,0.119-1.734,0.357c-0.506,0.238-0.936,0.573-1.287,1.001c-0.354,0.43-0.62,0.94-0.803,1.534
		c-0.184,0.593-0.274,1.244-0.274,1.953v1.828c0,0.715,0.093,1.37,0.278,1.967c0.186,0.596,0.455,1.107,0.807,1.536
		c0.352,0.431,0.782,0.764,1.292,1.002s1.089,0.357,1.737,0.357c0.653,0,1.236-0.119,1.746-0.357s0.938-0.571,1.287-1.002
		c0.35-0.429,0.615-0.94,0.799-1.536c0.182-0.597,0.273-1.252,0.273-1.967V99.145z"/>
	<path style="&st0;" d="M172.292,100.939h-4.198v5.178h-0.447V94.016h3.855c0.576,0,1.108,0.077,1.596,0.229
		c0.488,0.152,0.907,0.377,1.259,0.673c0.353,0.296,0.626,0.66,0.823,1.093c0.196,0.432,0.295,0.931,0.295,1.496
		c0,0.432-0.07,0.834-0.211,1.205c-0.143,0.371-0.336,0.702-0.583,0.993c-0.245,0.291-0.534,0.532-0.864,0.723
		c-0.33,0.19-0.686,0.323-1.067,0.394l3.233,5.179v0.116h-0.475L172.292,100.939L172.292,100.939z M168.094,100.491h3.814
		c0.517,0,0.969-0.084,1.359-0.254s0.717-0.393,0.978-0.673c0.261-0.28,0.455-0.599,0.585-0.956
		c0.131-0.357,0.196-0.724,0.196-1.101c0-0.477-0.083-0.903-0.249-1.28c-0.167-0.377-0.404-0.695-0.711-0.956
		c-0.309-0.26-0.678-0.459-1.109-0.598c-0.433-0.139-0.918-0.208-1.455-0.208h-3.408V100.491L168.094,100.491z"/>
	<path style="&st0;" d="M185.34,100.117h-6.066v5.552h6.914v0.448h-7.363V94.016h7.363v0.449h-6.914v5.203h6.066V100.117z"/>
	<path style="&st0;" d="M193.119,100.939h-4.197v5.178h-0.449V94.016h3.857c0.576,0,1.108,0.077,1.596,0.229
		c0.488,0.152,0.907,0.377,1.259,0.673c0.353,0.296,0.626,0.66,0.823,1.093c0.196,0.432,0.295,0.931,0.295,1.496
		c0,0.432-0.07,0.834-0.211,1.205c-0.143,0.371-0.336,0.702-0.583,0.993s-0.534,0.532-0.864,0.723
		c-0.33,0.19-0.686,0.323-1.068,0.394l3.233,5.179v0.116h-0.474L193.119,100.939z M188.922,100.491h3.814
		c0.517,0,0.969-0.084,1.359-0.254s0.717-0.393,0.977-0.673c0.26-0.28,0.456-0.599,0.586-0.956c0.131-0.357,0.195-0.724,0.195-1.101
		c0-0.477-0.082-0.903-0.25-1.28c-0.165-0.377-0.402-0.695-0.71-0.956s-0.677-0.459-1.108-0.598
		c-0.433-0.139-0.918-0.208-1.455-0.208h-3.408V100.491z"/>
</g>
<path id="Shape_2" style="&st0;" d="M14.085,84.866l0.479,8.595l4.035,2.793l1.026-4.799L14.085,84.866z"/>
<path id="Shape_2_copy" style="&st0;" d="M20.48,91.411l0.872,4.825l4.121-2.673l0.753-8.572L20.48,91.411z"/>
<path id="Shape_2_copy_2" style="&st0;" d="M26.113,94.125l-2.791,4.023l4.798,1.024l6.586-5.521L26.113,94.125z"/>
<path id="Shape_2_copy_3" style="&st0;" d="M28.167,100.054l-4.824,0.873l2.672,4.122l8.572,0.753L28.167,100.054z"/>
<path id="Shape_2_copy_4" style="&st0;" d="M25.451,105.69l-4.022-2.791l-1.025,4.798l5.522,6.586L25.451,105.69z"/>
<path id="Shape_2_copy_5" style="&st0;" d="M18.681,102.949l-4.124,2.672l-0.752,8.572l5.749-6.42L18.681,102.949z"/>
<path id="Shape_2_copy_6" style="&st0;" d="M11.877,99.979L5.293,105.5l8.592-0.473l2.791-4.022L11.877,99.979z"/>
<path id="Shape_2_copy_7" style="&st0;" d="M13.986,94.104l-8.573-0.752l6.419,5.75l4.824-0.873L13.986,94.104z"/>
<path id="Shape_2_copy_15" style="&st0;" d="M5.25,93.616l-4.824,0.872l2.672,4.125l8.571,0.753L5.25,93.616z"/>
<path id="Shape_2_copy_8" style="&st0;" d="M13.78,84.934l-4.027-2.795l-1.025,4.803l5.529,6.595L13.78,84.934z"/>
<path id="Shape_2_copy_9" style="&st0;" d="M25.085,80l-4.121,2.672l-0.753,8.573l5.745-6.42L25.085,80z"/>
<path id="Shape_2_copy_10" style="&st0;" d="M32.631,88.311l-6.586,5.521l8.594-0.473l2.791-4.022L32.631,88.311z"/>
<path id="Shape_2_copy_11" style="&st0;" d="M36.903,100.539l-8.572-0.752l6.419,5.75l4.825-0.873L36.903,100.539z"/>
<path id="Shape_2_copy_12" style="&st0;" d="M25.744,105.621l0.474,8.594l4.023,2.79l1.025-4.798L25.744,105.621z"/>
<path id="Shape_2_copy_13" style="&st0;" d="M14.04,114.326l0.872,4.825l4.125-2.671l0.752-8.573L14.04,114.326L14.04,114.326z"/>
<path id="Shape_2_copy_14" style="&st0;" d="M5.361,105.794l-2.791,4.022l4.799,1.027l6.586-5.521L5.361,105.794z"/>
<path id="Shape_2_copy_16" style="&st0;" d="M7.581,110.975l5.955,3.148l0.723-8.678L7.581,110.975z"/>
<path id="Shape_2_copy_17" style="&st0;" d="M3.157,98.854l1.986,6.437l6.646-5.625L3.157,98.854z"/>
<path id="Shape_2_copy_18" style="&st0;" d="M8.601,87.155l-3.137,5.946l8.67,0.732L8.601,87.155z"/>
<path id="Shape_2_copy_19" style="&st0;" d="M14.293,84.713l5.617,6.653l0.808-8.637L14.293,84.713z"/>
<path id="Shape_2_copy_20" style="&st0;" d="M26.478,85.039l-0.733,8.673l6.677-5.535L26.478,85.039z"/>
<path id="Shape_2_copy_21" style="&st0;" d="M34.864,93.87l-6.653,5.617l8.637,0.807L34.864,93.87z"/>
<path id="Shape_2_copy_22" style="&st0;" d="M25.864,105.322l5.535,6.676l3.14-5.943L25.864,105.322z"/>
<path id="Shape_2_copy_23" style="&st0;" d="M20.09,107.787l-0.807,8.636l6.425-1.983L20.09,107.787z"/>
<g>
	<path style="&st0;" d="M172.705,110.176c0.456-0.096,1.176-0.168,1.907-0.168c1.044,0,1.715,0.18,2.219,0.588
		c0.42,0.312,0.672,0.791,0.672,1.427c0,0.78-0.516,1.464-1.367,1.775v0.023c0.768,0.192,1.667,0.828,1.667,2.027
		c0,0.695-0.276,1.224-0.684,1.619c-0.563,0.516-1.476,0.756-2.795,0.756c-0.72,0-1.271-0.048-1.619-0.097V110.176z
		 M173.749,113.486h0.947c1.104,0,1.751-0.576,1.751-1.355c0-0.947-0.72-1.319-1.774-1.319c-0.48,0-0.756,0.036-0.924,0.072V113.486
		z M173.749,117.359c0.204,0.036,0.504,0.049,0.875,0.049c1.08,0,2.075-0.396,2.075-1.571c0-1.104-0.947-1.56-2.087-1.56h-0.863
		V117.359z"/>
	<path style="&st0;" d="M183.396,114.361h-3.143v2.914h3.502v0.876h-4.546v-8.084h4.366v0.876h-3.322v2.555h3.143V114.361z"/>
	<path style="&st0;" d="M186.84,110.955h-2.458v-0.888h5.984v0.888h-2.471v7.196h-1.056V110.955z"/>
	<path style="&st0;" d="M191.677,115.608l-0.84,2.543h-1.079l2.746-8.084h1.26l2.759,8.084h-1.115l-0.864-2.543H191.677z
		 M194.327,114.793l-0.791-2.326c-0.181-0.528-0.3-1.008-0.42-1.476h-0.024c-0.12,0.479-0.252,0.972-0.407,1.463l-0.792,2.339
		H194.327z"/>
</g>
</svg>
