<?xml version="1.0" encoding="utf-8"?>
<!-- Generator: Adobe Illustrator 16.0.3, SVG Export Plug-In . SVG Version: 6.00 Build 0)  -->
<!DOCTYPE svg PUBLIC "-//W3C//DTD SVG 1.1//EN" "http://www.w3.org/Graphics/SVG/1.1/DTD/svg11.dtd">
<svg version="1.1" id="Ebene_1" xmlns:serif="http://www.serif.com/"
	 xmlns="http://www.w3.org/2000/svg" xmlns:xlink="http://www.w3.org/1999/xlink" x="0px" y="0px" width="165px" height="48px"
	 viewBox="0.428 0 165 48" enable-background="new 0.428 0 165 48" xml:space="preserve">
<path id="Shape_2" fill="#FFFFFF" d="M16.455,7.02l0.513,9.221l4.33,2.997l1.1-5.149L16.455,7.02z"/>
<path id="Shape_2_copy" fill="#FFFFFF" d="M23.315,14.042l0.935,5.175l4.421-2.867l0.809-9.198L23.315,14.042z"/>
<path id="Shape_2_copy_2" fill="#FFFFFF" d="M29.358,16.954l-2.994,4.315l5.148,1.099l7.065-5.923L29.358,16.954z"/>
<path id="Shape_2_copy_3" fill="#FFFFFF" d="M31.561,23.315l-5.174,0.936l2.866,4.423l9.197,0.807L31.561,23.315L31.561,23.315z"/>
<path id="Shape_2_copy_4" fill="#FFFFFF" d="M28.649,29.361l-4.316-2.994l-1.099,5.148l5.923,7.064L28.649,29.361z"/>
<path id="Shape_2_copy_5" fill="#FFFFFF" d="M21.384,26.42l-4.423,2.866l-0.808,9.196l6.167-6.887L21.384,26.42z"/>
<path id="Shape_2_copy_6" fill="#FFFFFF" d="M14.087,23.234l-7.064,5.924l9.218-0.507l2.994-4.316L14.087,23.234z"/>
<path id="Shape_2_copy_7" fill="#FFFFFF" d="M16.348,16.931l-9.197-0.806l6.887,6.168l5.177-0.938L16.348,16.931z"/>
<path id="Shape_2_copy_15" fill="#FFFFFF" d="M6.976,16.408L1.8,17.344l2.866,4.424l9.196,0.809L6.976,16.408z"/>
<path id="Shape_2_copy_8" fill="#FFFFFF" d="M16.128,7.093l-4.321-2.999l-1.099,5.153l5.933,7.075L16.128,7.093z"/>
<path id="Shape_2_copy_9" fill="#FFFFFF" d="M28.255,1.8l-4.421,2.867l-0.809,9.198l6.165-6.889L28.255,1.8z"/>
<path id="Shape_2_copy_10" fill="#FFFFFF" d="M36.351,10.716l-7.066,5.923l9.221-0.508l2.994-4.315L36.351,10.716z"/>
<path id="Shape_2_copy_11" fill="#FFFFFF" d="M40.933,23.835l-9.195-0.808l6.887,6.167L43.8,28.26L40.933,23.835z"/>
<path id="Shape_2_copy_12" fill="#FFFFFF" d="M28.962,29.287l0.509,9.22l4.315,2.993l1.1-5.146L28.962,29.287z"/>
<path id="Shape_2_copy_13" fill="#FFFFFF" d="M16.405,38.627l0.937,5.177l4.423-2.866l0.809-9.199L16.405,38.627z"/>
<path id="Shape_2_copy_14" fill="#FFFFFF" d="M7.094,29.473l-2.993,4.316l5.148,1.102l7.064-5.925L7.094,29.473z"/>
<path id="Shape_2_copy_16" fill="#FFFFFF" d="M9.477,35.031l6.388,3.377l0.776-9.31L9.477,35.031z"/>
<path id="Shape_2_copy_17" fill="#FFFFFF" d="M4.731,22.028l2.129,6.905l7.132-6.035L4.731,22.028z"/>
<path id="Shape_2_copy_18" fill="#FFFFFF" d="M10.571,9.477l-3.366,6.378l9.301,0.786L10.571,9.477z"/>
<path id="Shape_2_copy_19" fill="#FFFFFF" d="M16.678,6.855l6.025,7.139l0.867-9.267L16.678,6.855z"/>
<path id="Shape_2_copy_20" fill="#FFFFFF" d="M29.749,7.206l-0.786,9.305l7.163-5.938L29.749,7.206z"/>
<path id="Shape_2_copy_21" fill="#FFFFFF" d="M38.747,16.68l-7.137,6.025l9.265,0.867L38.747,16.68z"/>
<path id="Shape_2_copy_22" fill="#FFFFFF" d="M29.092,28.967l5.938,7.162l3.368-6.377L29.092,28.967z"/>
<path id="Shape_2_copy_23" fill="#FFFFFF" d="M22.897,31.61l-0.866,9.265l6.893-2.127L22.897,31.61z"/>
<path opacity="0.6" fill="#FFFFFF" fill-opacity="0.55" d="M59.271,11.939c0,0.965-0.221,1.742-0.663,2.332
	c-0.44,0.59-1.038,0.885-1.792,0.885c-0.77,0-1.375-0.245-1.816-0.733v3.053h-1.084V8.699h0.99l0.053,0.703
	c0.442-0.547,1.055-0.821,1.841-0.821c0.761,0,1.363,0.288,1.807,0.862c0.443,0.575,0.665,1.373,0.665,2.396V11.939z M58.187,11.816
	c0-0.715-0.153-1.279-0.458-1.694c-0.305-0.414-0.722-0.621-1.254-0.621c-0.656,0-1.148,0.291-1.476,0.873v3.03
	c0.324,0.579,0.82,0.867,1.488,0.867c0.52,0,0.932-0.205,1.239-0.618C58.033,13.241,58.187,12.629,58.187,11.816z"/>
<path opacity="0.6" fill="#FFFFFF" fill-opacity="0.55" d="M63.711,9.671C63.548,9.645,63.37,9.63,63.179,9.63
	c-0.71,0-1.193,0.304-1.447,0.909v4.5h-1.083v-6.34h1.055l0.017,0.732c0.355-0.566,0.859-0.85,1.512-0.85
	c0.211,0,0.371,0.028,0.48,0.083V9.671z"/>
<path opacity="0.6" fill="#FFFFFF" fill-opacity="0.55" d="M64.303,11.811c0-0.622,0.123-1.18,0.367-1.677
	c0.244-0.496,0.583-0.878,1.019-1.148c0.436-0.269,0.932-0.405,1.491-0.405c0.863,0,1.562,0.299,2.095,0.896
	c0.533,0.598,0.799,1.393,0.799,2.386v0.076c0,0.617-0.118,1.171-0.354,1.661c-0.236,0.491-0.575,0.873-1.014,1.146
	c-0.439,0.273-0.944,0.41-1.514,0.41c-0.859,0-1.557-0.298-2.089-0.896s-0.8-1.39-0.8-2.374V11.811z M65.394,11.939
	c0,0.703,0.163,1.267,0.488,1.693c0.327,0.426,0.763,0.639,1.311,0.639c0.551,0,0.987-0.215,1.312-0.647
	c0.325-0.432,0.487-1.037,0.487-1.813c0-0.696-0.166-1.259-0.496-1.691s-0.768-0.648-1.315-0.648c-0.535,0-0.967,0.213-1.294,0.64
	C65.557,10.537,65.394,11.146,65.394,11.939z"/>
<path opacity="0.6" fill="#FFFFFF" fill-opacity="0.55" d="M75.349,14.412c-0.422,0.496-1.042,0.744-1.857,0.744
	c-0.676,0-1.19-0.197-1.544-0.589c-0.353-0.393-0.532-0.973-0.537-1.744V8.699h1.085v4.096c0,0.961,0.39,1.441,1.171,1.441
	c0.828,0,1.378-0.309,1.652-0.925V8.699h1.083v6.34h-1.031L75.349,14.412z"/>
<path opacity="0.6" fill="#FFFFFF" fill-opacity="0.55" d="M77.787,11.816c0-0.973,0.23-1.755,0.691-2.347s1.064-0.888,1.811-0.888
	c0.741,0,1.33,0.254,1.764,0.762V6.039h1.084v9H82.14l-0.053-0.679c-0.435,0.53-1.037,0.796-1.811,0.796
	c-0.734,0-1.333-0.301-1.796-0.902c-0.462-0.601-0.693-1.387-0.693-2.355V11.816L77.787,11.816z M78.87,11.939
	c0,0.719,0.148,1.281,0.445,1.687c0.297,0.407,0.707,0.61,1.231,0.61c0.688,0,1.189-0.309,1.506-0.925v-2.913
	c-0.325-0.598-0.823-0.896-1.495-0.896c-0.53,0-0.944,0.205-1.242,0.616C79.019,10.526,78.87,11.135,78.87,11.939z"/>
<rect x="84.91" y="6.039" opacity="0.6" fill="#FFFFFF" fill-opacity="0.55" width="1.084" height="9"/>
<path opacity="0.6" fill="#FFFFFF" fill-opacity="0.55" d="M89.803,13.451l1.478-4.752h1.161l-2.549,7.319
	c-0.396,1.054-1.023,1.582-1.883,1.582l-0.205-0.018l-0.402-0.076v-0.879l0.293,0.024c0.367,0,0.652-0.074,0.857-0.223
	c0.205-0.147,0.375-0.42,0.506-0.813l0.242-0.645l-2.262-6.27h1.183L89.803,13.451z"/>
<path opacity="0.6" fill="#FFFFFF" fill-opacity="0.55" d="M101.733,11.939c0,0.965-0.221,1.742-0.662,2.332
	c-0.442,0.59-1.039,0.885-1.793,0.885c-0.769,0-1.375-0.245-1.817-0.733v3.053h-1.083V8.699h0.99l0.053,0.703
	c0.441-0.547,1.055-0.821,1.839-0.821c0.763,0,1.365,0.288,1.809,0.862c0.443,0.575,0.665,1.373,0.665,2.396V11.939L101.733,11.939z
	 M100.65,11.816c0-0.715-0.152-1.279-0.457-1.694c-0.305-0.414-0.725-0.621-1.254-0.621c-0.657,0-1.148,0.291-1.479,0.873v3.03
	c0.324,0.579,0.821,0.867,1.49,0.867c0.518,0,0.932-0.205,1.238-0.618C100.496,13.241,100.65,12.629,100.65,11.816z"/>
<path opacity="0.6" fill="#FFFFFF" fill-opacity="0.55" d="M106.174,9.671c-0.165-0.026-0.342-0.041-0.532-0.041
	c-0.713,0-1.194,0.304-1.447,0.909v4.5h-1.086v-6.34h1.056l0.018,0.732c0.355-0.566,0.859-0.85,1.513-0.85
	c0.209,0,0.37,0.028,0.479,0.083V9.671z"/>
<path opacity="0.6" fill="#FFFFFF" fill-opacity="0.55" d="M109.691,15.156c-0.859,0-1.56-0.282-2.098-0.847
	c-0.541-0.564-0.81-1.319-0.81-2.264v-0.199c0-0.629,0.12-1.19,0.36-1.685c0.24-0.495,0.576-0.881,1.008-1.161
	c0.432-0.278,0.9-0.419,1.402-0.419c0.824,0,1.466,0.272,1.923,0.815s0.685,1.32,0.685,2.332v0.451h-4.294
	c0.016,0.625,0.198,1.13,0.548,1.516c0.35,0.384,0.793,0.576,1.334,0.576c0.383,0,0.707-0.078,0.972-0.234
	c0.265-0.156,0.498-0.364,0.697-0.621l0.662,0.515C111.549,14.748,110.752,15.156,109.691,15.156z M109.554,9.472
	c-0.437,0-0.804,0.16-1.102,0.478c-0.296,0.319-0.479,0.766-0.551,1.339h3.177v-0.082c-0.031-0.551-0.18-0.978-0.445-1.28
	C110.369,9.624,110.008,9.472,109.554,9.472z"/>
<path opacity="0.6" fill="#FFFFFF" fill-opacity="0.55" d="M117.105,13.357c0-0.293-0.109-0.521-0.33-0.683
	s-0.605-0.302-1.154-0.419c-0.549-0.117-0.984-0.258-1.306-0.422c-0.322-0.163-0.561-0.358-0.715-0.585
	c-0.154-0.227-0.231-0.496-0.231-0.809c0-0.52,0.22-0.959,0.659-1.319c0.439-0.359,1.001-0.539,1.683-0.539
	c0.721,0,1.303,0.186,1.75,0.557c0.447,0.371,0.672,0.846,0.672,1.424h-1.09c0-0.298-0.127-0.553-0.379-0.768
	s-0.57-0.323-0.953-0.323c-0.393,0-0.703,0.086-0.924,0.258c-0.223,0.173-0.335,0.397-0.335,0.674c0,0.262,0.104,0.458,0.312,0.592
	s0.58,0.259,1.121,0.38s0.98,0.267,1.316,0.435c0.334,0.168,0.584,0.37,0.746,0.606s0.244,0.524,0.244,0.864
	c0,0.566-0.227,1.021-0.682,1.363c-0.451,0.341-1.039,0.512-1.762,0.512c-0.51,0-0.957-0.09-1.347-0.27
	c-0.392-0.18-0.697-0.431-0.918-0.752c-0.221-0.323-0.332-0.671-0.332-1.046h1.086c0.019,0.363,0.164,0.651,0.435,0.864
	c0.271,0.213,0.629,0.319,1.076,0.319c0.408,0,0.738-0.083,0.986-0.249S117.105,13.634,117.105,13.357z"/>
<path opacity="0.6" fill="#FFFFFF" fill-opacity="0.55" d="M122.234,15.156c-0.859,0-1.559-0.282-2.098-0.847
	c-0.539-0.564-0.809-1.319-0.809-2.264v-0.199c0-0.629,0.119-1.19,0.359-1.685c0.24-0.495,0.576-0.881,1.008-1.161
	c0.432-0.278,0.9-0.419,1.404-0.419c0.822,0,1.465,0.272,1.922,0.815s0.684,1.32,0.684,2.332v0.451h-4.295
	c0.016,0.625,0.199,1.13,0.549,1.516c0.35,0.384,0.793,0.576,1.334,0.576c0.383,0,0.707-0.078,0.973-0.234
	c0.266-0.156,0.496-0.364,0.695-0.621l0.664,0.515C124.092,14.748,123.295,15.156,122.234,15.156z M122.1,9.472
	c-0.438,0-0.805,0.16-1.102,0.478c-0.297,0.319-0.48,0.766-0.551,1.339h3.176v-0.082c-0.031-0.551-0.182-0.978-0.445-1.28
	C122.912,9.624,122.553,9.472,122.1,9.472z"/>
<path opacity="0.6" fill="#FFFFFF" fill-opacity="0.55" d="M126.986,8.699l0.035,0.797c0.484-0.609,1.117-0.915,1.898-0.915
	c1.34,0,2.016,0.756,2.027,2.268v4.189h-1.084v-4.195c-0.004-0.457-0.109-0.794-0.314-1.014c-0.205-0.218-0.523-0.328-0.957-0.328
	c-0.352,0-0.66,0.094-0.926,0.281c-0.266,0.188-0.475,0.435-0.621,0.738v4.518h-1.086v-6.34H126.986z"/>
<path opacity="0.6" fill="#FFFFFF" fill-opacity="0.55" d="M134.051,7.164v1.535h1.186v0.838h-1.186v3.937
	c0,0.254,0.053,0.444,0.158,0.571c0.107,0.127,0.287,0.191,0.541,0.191c0.125,0,0.297-0.023,0.516-0.07v0.874
	c-0.285,0.077-0.564,0.116-0.832,0.116c-0.484,0-0.85-0.146-1.096-0.439c-0.246-0.294-0.369-0.709-0.369-1.248V9.537h-1.154V8.699
	h1.154V7.164H134.051z"/>
<path opacity="0.6" fill="#FFFFFF" fill-opacity="0.55" d="M139.133,15.156c-0.859,0-1.559-0.282-2.098-0.847
	c-0.539-0.564-0.809-1.319-0.809-2.264v-0.199c0-0.629,0.119-1.19,0.359-1.685c0.24-0.495,0.576-0.881,1.008-1.161
	c0.432-0.278,0.9-0.419,1.404-0.419c0.822,0,1.463,0.272,1.922,0.815c0.457,0.542,0.684,1.32,0.684,2.332v0.451h-4.295
	c0.016,0.625,0.199,1.13,0.549,1.516c0.35,0.384,0.793,0.576,1.334,0.576c0.383,0,0.707-0.078,0.973-0.234
	c0.266-0.156,0.496-0.364,0.695-0.621l0.664,0.515C140.99,14.748,140.193,15.156,139.133,15.156z M138.998,9.472
	c-0.438,0-0.805,0.16-1.102,0.478c-0.297,0.319-0.48,0.766-0.551,1.339h3.176v-0.082c-0.031-0.551-0.182-0.978-0.445-1.28
	C139.811,9.624,139.451,9.472,138.998,9.472z"/>
<path opacity="0.6" fill="#FFFFFF" fill-opacity="0.55" d="M142.596,11.816c0-0.973,0.23-1.755,0.691-2.347s1.064-0.888,1.811-0.888
	c0.742,0,1.33,0.254,1.762,0.762V6.039h1.086v9h-0.996l-0.053-0.679c-0.436,0.53-1.039,0.796-1.811,0.796
	c-0.734,0-1.334-0.301-1.797-0.902c-0.463-0.601-0.693-1.387-0.693-2.355V11.816L142.596,11.816z M143.68,11.939
	c0,0.719,0.148,1.281,0.445,1.687c0.295,0.407,0.707,0.61,1.229,0.61c0.688,0,1.191-0.309,1.506-0.925v-2.913
	c-0.322-0.598-0.82-0.896-1.492-0.896c-0.533,0-0.947,0.205-1.242,0.616C143.828,10.526,143.68,11.135,143.68,11.939z"/>
<path opacity="0.6" fill="#FFFFFF" fill-opacity="0.55" d="M157.965,11.939c0,0.968-0.223,1.747-0.668,2.335
	s-1.045,0.882-1.795,0.882c-0.799,0-1.418-0.283-1.855-0.85l-0.053,0.732h-0.996v-9h1.084v3.357
	c0.436-0.542,1.039-0.815,1.811-0.815c0.77,0,1.373,0.292,1.813,0.874s0.66,1.379,0.66,2.391V11.939L157.965,11.939z
	 M156.881,11.816c0-0.739-0.143-1.309-0.43-1.711c-0.283-0.402-0.693-0.604-1.229-0.604c-0.717,0-1.23,0.333-1.541,0.996v2.742
	c0.332,0.664,0.85,0.996,1.553,0.996c0.52,0,0.924-0.201,1.213-0.604C156.734,13.23,156.881,12.624,156.881,11.816L156.881,11.816z"
	/>
<path opacity="0.6" fill="#FFFFFF" fill-opacity="0.55" d="M161.34,13.451l1.477-4.752h1.16l-2.549,7.319
	c-0.395,1.054-1.021,1.582-1.881,1.582l-0.205-0.018l-0.404-0.076v-0.879l0.293,0.024c0.367,0,0.652-0.074,0.857-0.223
	c0.205-0.147,0.375-0.42,0.508-0.813l0.24-0.645l-2.262-6.27h1.182L161.34,13.451L161.34,13.451z"/>
<path fill="#FFFFFF" d="M58.147,36.805c-0.62,0-1.191-0.115-1.713-0.348c-0.521-0.23-0.971-0.553-1.349-0.966
	s-0.672-0.903-0.883-1.472c-0.21-0.568-0.315-1.192-0.315-1.871V31.77c0-0.732,0.109-1.395,0.329-1.99
	c0.22-0.594,0.517-1.102,0.893-1.521c0.375-0.419,0.807-0.743,1.296-0.971c0.488-0.228,1.005-0.343,1.55-0.343
	c0.604,0,1.14,0.109,1.608,0.324c0.469,0.218,0.863,0.52,1.182,0.906c0.319,0.387,0.562,0.846,0.725,1.379
	c0.165,0.534,0.246,1.116,0.246,1.75v0.641h-6.784v0.203c0,0.521,0.079,1.012,0.238,1.471c0.158,0.459,0.38,0.86,0.667,1.2
	c0.288,0.339,0.63,0.606,1.028,0.804c0.398,0.195,0.841,0.294,1.327,0.294c0.563,0,1.059-0.103,1.489-0.308
	c0.431-0.205,0.822-0.532,1.174-0.983l0.659,0.501c-0.158,0.228-0.341,0.445-0.55,0.65c-0.208,0.205-0.449,0.383-0.725,0.535
	c-0.275,0.153-0.585,0.273-0.931,0.361C58.962,36.761,58.576,36.805,58.147,36.805z M57.954,27.842
	c-0.398,0-0.767,0.076-1.106,0.229c-0.341,0.152-0.641,0.369-0.901,0.65c-0.26,0.281-0.475,0.619-0.642,1.014
	c-0.167,0.396-0.279,0.834-0.338,1.314h5.704v-0.113c-0.012-0.398-0.077-0.784-0.193-1.156c-0.118-0.372-0.29-0.702-0.515-0.988
	c-0.224-0.287-0.505-0.518-0.838-0.69C58.789,27.928,58.399,27.842,57.954,27.842L57.954,27.842z"/>
<path fill="#FFFFFF" d="M63.183,31.734c0-0.691,0.102-1.33,0.303-1.916c0.202-0.585,0.487-1.09,0.857-1.516
	c0.369-0.424,0.813-0.757,1.335-0.996c0.521-0.24,1.102-0.361,1.74-0.361c0.65,0,1.237,0.121,1.762,0.361
	c0.524,0.239,0.971,0.572,1.34,0.996c0.368,0.426,0.653,0.931,0.852,1.516c0.199,0.586,0.299,1.225,0.299,1.916v0.29
	c0,0.691-0.1,1.329-0.299,1.915c-0.199,0.587-0.484,1.092-0.852,1.518c-0.37,0.424-0.815,0.754-1.336,0.992
	c-0.522,0.237-1.104,0.355-1.748,0.355s-1.228-0.118-1.75-0.355c-0.521-0.238-0.967-0.568-1.339-0.992
	c-0.372-0.426-0.66-0.931-0.862-1.518c-0.202-0.586-0.303-1.224-0.303-1.915V31.734z M64.237,32.024
	c0,0.522,0.071,1.018,0.211,1.489c0.141,0.472,0.346,0.885,0.615,1.24c0.27,0.354,0.604,0.637,1.002,0.847
	c0.398,0.211,0.855,0.316,1.372,0.316c0.515,0,0.971-0.105,1.365-0.316c0.396-0.21,0.729-0.493,0.998-0.847
	c0.27-0.355,0.475-0.769,0.616-1.24c0.14-0.472,0.211-0.967,0.211-1.489v-0.29c0-0.51-0.071-1-0.211-1.472
	c-0.141-0.472-0.346-0.887-0.616-1.243c-0.269-0.357-0.605-0.643-1.006-0.857s-0.859-0.32-1.375-0.32
	c-0.51,0-0.962,0.105-1.357,0.32c-0.396,0.215-0.728,0.5-0.998,0.857c-0.269,0.356-0.474,0.771-0.615,1.243
	c-0.14,0.472-0.211,0.962-0.211,1.472V32.024z"/>
<path fill="#FFFFFF" d="M79.536,34.212c0-0.192-0.034-0.386-0.101-0.579c-0.067-0.193-0.193-0.377-0.378-0.55
	c-0.185-0.173-0.443-0.334-0.773-0.482c-0.331-0.15-0.761-0.28-1.288-0.392c-0.528-0.111-0.997-0.24-1.411-0.387
	c-0.413-0.146-0.761-0.323-1.045-0.531c-0.285-0.209-0.5-0.455-0.646-0.742c-0.146-0.287-0.22-0.625-0.22-1.011
	c0-0.352,0.077-0.685,0.233-1.002c0.155-0.317,0.378-0.592,0.667-0.825c0.291-0.236,0.642-0.422,1.055-0.559
	c0.413-0.139,0.877-0.207,1.394-0.207c0.551,0,1.044,0.071,1.48,0.215c0.436,0.144,0.805,0.343,1.106,0.598
	c0.302,0.255,0.532,0.555,0.69,0.9c0.159,0.346,0.238,0.721,0.238,1.126h-1.055c0-0.246-0.054-0.486-0.162-0.722
	c-0.109-0.234-0.267-0.439-0.475-0.619c-0.208-0.179-0.466-0.324-0.773-0.434c-0.307-0.112-0.658-0.168-1.05-0.168
	c-0.411,0-0.761,0.05-1.05,0.149c-0.291,0.1-0.528,0.228-0.711,0.386c-0.185,0.159-0.32,0.336-0.404,0.532
	c-0.085,0.196-0.127,0.394-0.127,0.593c0,0.211,0.031,0.403,0.096,0.576c0.064,0.173,0.189,0.334,0.373,0.483
	c0.185,0.149,0.443,0.286,0.774,0.413c0.331,0.126,0.763,0.25,1.296,0.373c0.574,0.135,1.069,0.284,1.484,0.449
	c0.417,0.162,0.761,0.358,1.033,0.584c0.272,0.226,0.474,0.482,0.606,0.773c0.132,0.289,0.198,0.625,0.198,1.006
	c0,0.393-0.082,0.752-0.246,1.076c-0.165,0.326-0.398,0.604-0.703,0.834c-0.305,0.232-0.673,0.412-1.107,0.541
	c-0.434,0.129-0.917,0.193-1.45,0.193c-0.604,0-1.136-0.078-1.6-0.232c-0.462-0.156-0.852-0.365-1.169-0.629
	c-0.315-0.264-0.554-0.566-0.715-0.909c-0.162-0.343-0.242-0.698-0.242-1.068h1.055c0.023,0.376,0.12,0.688,0.291,0.937
	c0.169,0.25,0.38,0.448,0.632,0.598s0.532,0.256,0.839,0.321c0.307,0.063,0.611,0.096,0.91,0.096c0.398,0,0.75-0.046,1.055-0.14
	s0.561-0.221,0.769-0.379c0.208-0.158,0.364-0.34,0.469-0.545C79.483,34.648,79.536,34.436,79.536,34.212z"/>
<path fill="#FFFFFF" d="M82.726,36.629V23.834h3.937c0.862,0,1.65,0.147,2.368,0.444c0.718,0.296,1.333,0.712,1.846,1.248
	s0.913,1.179,1.2,1.929s0.431,1.582,0.431,2.496v0.579c0,0.915-0.143,1.745-0.427,2.491c-0.283,0.748-0.686,1.389-1.204,1.925
	s-1.138,0.95-1.858,1.243s-1.514,0.439-2.381,0.439H82.726L82.726,36.629z M85.361,25.971v8.54h1.275
	c1.043,0,1.836-0.343,2.381-1.032c0.545-0.688,0.818-1.672,0.818-2.948v-0.598c0-1.301-0.271-2.286-0.809-2.956
	c-0.539-0.672-1.328-1.006-2.365-1.006H85.361z"/>
<path fill="#FFFFFF" d="M101.46,33.992h-4.622l-0.878,2.637h-2.803l4.762-12.794h2.441l4.79,12.794h-2.804L101.46,33.992z
	 M97.55,31.857h3.197l-1.607-4.789L97.55,31.857z"/>
<path fill="#FFFFFF" d="M116.203,32.367c-0.047,0.65-0.193,1.247-0.438,1.793c-0.246,0.545-0.586,1.012-1.02,1.402
	c-0.433,0.389-0.96,0.693-1.577,0.912c-0.618,0.221-1.322,0.33-2.113,0.33c-0.82,0-1.557-0.143-2.211-0.426
	c-0.652-0.284-1.205-0.693-1.66-1.227c-0.454-0.532-0.802-1.178-1.045-1.938c-0.244-0.758-0.365-1.609-0.365-2.553v-0.844
	c0-0.943,0.126-1.795,0.378-2.557s0.608-1.408,1.067-1.941c0.46-0.534,1.018-0.943,1.674-1.23c0.657-0.288,1.389-0.431,2.197-0.431
	c0.797,0,1.5,0.113,2.113,0.338c0.612,0.226,1.133,0.54,1.56,0.94c0.428,0.402,0.762,0.878,1.002,1.433
	c0.238,0.554,0.391,1.155,0.457,1.806h-2.636c-0.029-0.381-0.096-0.717-0.199-1.01c-0.102-0.295-0.249-0.541-0.442-0.74
	c-0.193-0.199-0.442-0.349-0.747-0.451s-0.674-0.154-1.107-0.154c-0.891,0-1.553,0.324-1.99,0.971
	c-0.437,0.648-0.655,1.651-0.655,3.01v0.861c0,0.662,0.05,1.242,0.146,1.74c0.098,0.498,0.25,0.914,0.457,1.248
	s0.478,0.584,0.809,0.752c0.33,0.166,0.73,0.25,1.199,0.25c0.416,0,0.775-0.047,1.076-0.142c0.303-0.094,0.555-0.235,0.756-0.426
	c0.201-0.19,0.359-0.429,0.47-0.716s0.182-0.621,0.211-1.002H116.203L116.203,32.367z"/>
</svg>
