<?xml version="1.0" encoding="utf-8"?>
<!-- Generator: Adobe Illustrator 16.0.3, SVG Export Plug-In . SVG Version: 6.00 Build 0)  -->
<!DOCTYPE svg PUBLIC "-//W3C//DTD SVG 1.1//EN" "http://www.w3.org/Graphics/SVG/1.1/DTD/svg11.dtd">
<svg version="1.1" id="Ebene_1" xmlns:serif="http://www.serif.com/"
	 xmlns="http://www.w3.org/2000/svg" xmlns:xlink="http://www.w3.org/1999/xlink" x="0px" y="0px" width="225px" height="48px"
	 viewBox="0 0 225 48" enable-background="new 0 0 225 48" xml:space="preserve">
<path fill="#FFFFFF" d="M57.615,31.268c-0.69,0-1.325-0.129-1.904-0.386s-1.079-0.615-1.499-1.074s-0.747-1.004-0.981-1.636
	s-0.352-1.325-0.352-2.08v-0.42c0-0.813,0.122-1.551,0.366-2.212s0.575-1.224,0.991-1.689s0.897-0.825,1.44-1.079
	s1.118-0.381,1.724-0.381c0.67,0,1.266,0.12,1.787,0.361s0.958,0.576,1.313,1.006s0.624,0.94,0.806,1.533s0.273,1.24,0.273,1.943
	v0.713h-7.539v0.225c0,0.579,0.088,1.125,0.264,1.636s0.423,0.955,0.742,1.333s0.7,0.676,1.143,0.894s0.934,0.327,1.475,0.327
	c0.625,0,1.177-0.114,1.655-0.342s0.913-0.593,1.304-1.094l0.732,0.557c-0.176,0.254-0.379,0.495-0.61,0.723s-0.5,0.427-0.806,0.596
	s-0.651,0.303-1.035,0.4S58.09,31.268,57.615,31.268z M57.4,21.307c-0.443,0-0.853,0.085-1.23,0.254s-0.711,0.41-1.001,0.723
	s-0.527,0.688-0.713,1.128s-0.311,0.926-0.376,1.46h6.338v-0.127c-0.013-0.442-0.084-0.871-0.215-1.284s-0.321-0.779-0.571-1.099
	s-0.562-0.574-0.933-0.767S57.895,21.307,57.4,21.307z"/>
<path fill="#FFFFFF" d="M63.21,25.633c0-0.769,0.112-1.478,0.337-2.129s0.542-1.213,0.952-1.685s0.905-0.842,1.484-1.108
	s1.224-0.4,1.934-0.4c0.723,0,1.375,0.134,1.958,0.4s1.079,0.637,1.489,1.108s0.726,1.033,0.947,1.685s0.332,1.36,0.332,2.129v0.322
	c0,0.769-0.111,1.478-0.332,2.129s-0.537,1.213-0.947,1.685s-0.905,0.84-1.484,1.104s-1.227,0.396-1.943,0.396
	s-1.364-0.132-1.943-0.396s-1.076-0.632-1.489-1.104s-0.732-1.033-0.957-1.685s-0.337-1.36-0.337-2.129V25.633z M64.382,25.955
	c0,0.579,0.078,1.131,0.234,1.655s0.384,0.983,0.684,1.377s0.67,0.708,1.113,0.942s0.951,0.352,1.523,0.352s1.079-0.117,1.519-0.352
	s0.809-0.549,1.108-0.942s0.527-0.853,0.684-1.377s0.234-1.076,0.234-1.655v-0.322c0-0.566-0.078-1.111-0.234-1.636
	s-0.384-0.984-0.684-1.382s-0.672-0.715-1.118-0.952s-0.956-0.356-1.528-0.356c-0.566,0-1.069,0.119-1.509,0.356
	S65.6,22.218,65.3,22.615s-0.527,0.857-0.684,1.382s-0.234,1.069-0.234,1.636V25.955z"/>
<path fill="#FFFFFF" d="M81.384,28.387c0-0.215-0.038-0.43-0.112-0.645s-0.215-0.418-0.42-0.61s-0.492-0.371-0.859-0.537
	s-0.845-0.311-1.431-0.435s-1.108-0.267-1.567-0.43s-0.846-0.359-1.162-0.591s-0.555-0.506-0.718-0.825s-0.244-0.693-0.244-1.123
	c0-0.391,0.086-0.762,0.259-1.113s0.42-0.657,0.742-0.918s0.713-0.467,1.172-0.62s0.975-0.229,1.548-0.229
	c0.612,0,1.161,0.08,1.646,0.239s0.895,0.381,1.23,0.664s0.591,0.617,0.767,1.001s0.264,0.801,0.264,1.25h-1.172
	c0-0.273-0.06-0.54-0.181-0.801s-0.296-0.49-0.527-0.688s-0.518-0.359-0.859-0.483s-0.731-0.186-1.167-0.186
	c-0.456,0-0.845,0.056-1.167,0.166s-0.586,0.254-0.791,0.43s-0.355,0.373-0.449,0.591s-0.142,0.438-0.142,0.659
	c0,0.234,0.036,0.447,0.107,0.64s0.21,0.371,0.415,0.537s0.492,0.319,0.859,0.459s0.848,0.278,1.44,0.415
	c0.638,0.149,1.188,0.315,1.65,0.498s0.845,0.398,1.147,0.649s0.527,0.537,0.674,0.859s0.22,0.695,0.22,1.118
	c0,0.437-0.091,0.835-0.273,1.196s-0.443,0.671-0.781,0.928s-0.749,0.457-1.23,0.601s-1.019,0.215-1.611,0.215
	c-0.67,0-1.263-0.086-1.777-0.259s-0.947-0.405-1.299-0.698s-0.617-0.63-0.796-1.011s-0.269-0.776-0.269-1.187h1.172
	c0.026,0.417,0.133,0.764,0.322,1.04s0.423,0.498,0.703,0.664s0.591,0.285,0.933,0.356s0.679,0.107,1.011,0.107
	c0.443,0,0.833-0.052,1.172-0.156s0.624-0.244,0.854-0.42s0.405-0.378,0.522-0.605S81.384,28.634,81.384,28.387z"/>
<path fill="#FFFFFF" d="M84.929,31.072V16.854h4.375c0.957,0,1.834,0.164,2.632,0.493s1.481,0.791,2.051,1.387
	s1.014,1.311,1.333,2.144s0.479,1.758,0.479,2.773v0.645c0,1.016-0.158,1.938-0.474,2.769s-0.762,1.543-1.338,2.139
	s-1.265,1.057-2.065,1.382s-1.683,0.488-2.646,0.488H84.929z M87.859,19.227v9.492h1.416c1.159,0,2.041-0.383,2.646-1.147
	s0.908-1.857,0.908-3.276v-0.664c0-1.445-0.299-2.541-0.898-3.286s-1.475-1.118-2.627-1.118H87.859z"/>
<path fill="#FFFFFF" d="M105.754,28.143h-5.137l-0.977,2.93h-3.115l5.293-14.219h2.715l5.322,14.219h-3.115L105.754,28.143z
	 M101.409,25.77h3.555l-1.787-5.322L101.409,25.77z"/>
<path fill="#FFFFFF" d="M122.146,26.336c-0.053,0.723-0.215,1.387-0.488,1.992s-0.651,1.125-1.133,1.558
	c-0.482,0.433-1.066,0.771-1.753,1.016c-0.688,0.244-1.47,0.366-2.349,0.366c-0.912,0-1.73-0.158-2.456-0.474
	c-0.727-0.315-1.341-0.77-1.846-1.362s-0.892-1.311-1.162-2.153s-0.405-1.789-0.405-2.837v-0.938c0-1.048,0.14-1.995,0.42-2.842
	s0.675-1.565,1.187-2.158s1.131-1.048,1.86-1.367c0.729-0.319,1.543-0.479,2.441-0.479c0.885,0,1.668,0.125,2.349,0.376
	c0.68,0.251,1.258,0.599,1.733,1.045c0.475,0.446,0.846,0.977,1.113,1.592c0.267,0.615,0.436,1.284,0.508,2.007h-2.93
	c-0.033-0.423-0.106-0.798-0.22-1.123c-0.114-0.325-0.278-0.599-0.493-0.82s-0.492-0.389-0.83-0.503
	c-0.339-0.114-0.749-0.171-1.23-0.171c-0.99,0-1.728,0.359-2.212,1.079c-0.485,0.72-0.728,1.834-0.728,3.345v0.957
	c0,0.735,0.054,1.38,0.161,1.934s0.276,1.016,0.508,1.387c0.23,0.371,0.53,0.649,0.898,0.835c0.367,0.186,0.812,0.278,1.333,0.278
	c0.462,0,0.86-0.052,1.196-0.156c0.335-0.104,0.615-0.262,0.84-0.474s0.398-0.477,0.522-0.796c0.123-0.319,0.201-0.69,0.234-1.113
	H122.146z"/>
<path fill="#FFFFFF" d="M135.38,24.021h-7.129v6.523h8.125v0.527h-8.652V16.854h8.652v0.527h-8.125v6.113h7.129V24.021z"/>
<path fill="#FFFFFF" d="M143.124,23.406l4.59-6.553h0.664l-4.922,6.963l5.107,7.256h-0.654l-4.785-6.846l-4.805,6.846h-0.635
	l5.107-7.256l-4.922-6.963h0.664L143.124,23.406z"/>
<path fill="#FFFFFF" d="M151.581,25.066v6.006h-0.527V16.854h4.443c0.755,0,1.419,0.1,1.992,0.298
	c0.572,0.198,1.051,0.479,1.436,0.84c0.384,0.361,0.674,0.798,0.869,1.309s0.293,1.079,0.293,1.704s-0.097,1.188-0.288,1.689
	c-0.192,0.501-0.48,0.928-0.864,1.279c-0.385,0.352-0.863,0.622-1.436,0.811c-0.573,0.188-1.24,0.283-2.002,0.283H151.581z
	 M151.581,24.539h3.916c0.716,0,1.331-0.093,1.846-0.278c0.514-0.186,0.936-0.438,1.265-0.757c0.328-0.319,0.569-0.691,0.723-1.118
	c0.152-0.427,0.229-0.881,0.229-1.362c0-0.501-0.077-0.974-0.229-1.416c-0.153-0.442-0.395-0.828-0.723-1.157
	c-0.329-0.329-0.751-0.589-1.265-0.781c-0.515-0.192-1.13-0.288-1.846-0.288h-3.916V24.539z"/>
<path fill="#FFFFFF" d="M163.603,30.545h7.295v0.527h-7.832V16.854h0.537V30.545z"/>
<path fill="#FFFFFF" d="M182.836,25.027c0,0.931-0.126,1.779-0.376,2.544c-0.251,0.765-0.609,1.421-1.074,1.968
	c-0.466,0.547-1.027,0.972-1.685,1.274c-0.658,0.303-1.396,0.454-2.217,0.454c-0.814,0-1.552-0.151-2.212-0.454
	c-0.661-0.303-1.226-0.728-1.694-1.274s-0.83-1.203-1.084-1.968s-0.381-1.613-0.381-2.544v-2.129c0-0.925,0.125-1.771,0.376-2.539
	c0.25-0.769,0.608-1.426,1.074-1.973c0.465-0.547,1.028-0.972,1.689-1.274c0.66-0.303,1.397-0.454,2.212-0.454
	c0.82,0,1.561,0.151,2.222,0.454c0.66,0.303,1.224,0.728,1.689,1.274c0.465,0.547,0.825,1.204,1.079,1.973s0.381,1.614,0.381,2.539
	V25.027z M182.309,22.879c0-0.833-0.109-1.599-0.327-2.295c-0.219-0.696-0.534-1.297-0.947-1.802
	c-0.414-0.505-0.92-0.896-1.519-1.177c-0.6-0.28-1.283-0.42-2.051-0.42c-0.762,0-1.44,0.14-2.036,0.42s-1.101,0.672-1.514,1.177
	c-0.414,0.505-0.728,1.105-0.942,1.802s-0.322,1.462-0.322,2.295v2.148c0,0.84,0.108,1.609,0.327,2.31
	c0.218,0.7,0.533,1.302,0.947,1.807c0.413,0.505,0.919,0.896,1.519,1.177c0.599,0.28,1.279,0.42,2.041,0.42
	c0.768,0,1.451-0.14,2.051-0.42c0.599-0.28,1.104-0.672,1.514-1.177s0.723-1.106,0.938-1.807s0.322-1.47,0.322-2.31V22.879z"/>
<path fill="#FFFFFF" d="M191.498,24.988h-4.932v6.084h-0.527V16.854h4.531c0.677,0,1.302,0.09,1.875,0.269
	c0.572,0.179,1.065,0.442,1.479,0.791c0.413,0.349,0.735,0.776,0.967,1.284c0.23,0.508,0.347,1.094,0.347,1.758
	c0,0.508-0.083,0.979-0.249,1.416s-0.395,0.825-0.684,1.167c-0.29,0.342-0.629,0.625-1.016,0.85
	c-0.388,0.225-0.806,0.379-1.255,0.464l3.799,6.084v0.137h-0.557L191.498,24.988z M186.566,24.461h4.482
	c0.605,0,1.138-0.1,1.597-0.298s0.841-0.462,1.147-0.791c0.306-0.329,0.535-0.703,0.688-1.123c0.152-0.42,0.229-0.852,0.229-1.294
	c0-0.56-0.098-1.062-0.293-1.504s-0.474-0.817-0.835-1.123s-0.796-0.54-1.304-0.703s-1.078-0.244-1.709-0.244h-4.004V24.461z"/>
<path fill="#FFFFFF" d="M206.83,24.021h-7.129v6.523h8.125v0.527h-8.652V16.854h8.652v0.527h-8.125v6.113h7.129V24.021z"/>
<path fill="#FFFFFF" d="M215.971,24.988h-4.932v6.084h-0.527V16.854h4.531c0.677,0,1.302,0.09,1.875,0.269
	c0.572,0.179,1.065,0.442,1.479,0.791c0.413,0.349,0.735,0.776,0.967,1.284c0.23,0.508,0.347,1.094,0.347,1.758
	c0,0.508-0.083,0.979-0.249,1.416s-0.395,0.825-0.684,1.167c-0.29,0.342-0.629,0.625-1.016,0.85
	c-0.388,0.225-0.806,0.379-1.255,0.464l3.799,6.084v0.137h-0.557L215.971,24.988z M211.039,24.461h4.482
	c0.605,0,1.138-0.1,1.597-0.298s0.841-0.462,1.147-0.791c0.306-0.329,0.535-0.703,0.688-1.123c0.152-0.42,0.229-0.852,0.229-1.294
	c0-0.56-0.098-1.062-0.293-1.504s-0.474-0.817-0.835-1.123s-0.796-0.54-1.304-0.703s-1.078-0.244-1.709-0.244h-4.004V24.461z"/>
<path fill="#FFFFFF" d="M193.666,44.072v-8.531h2.52c0.434,0,0.822,0.044,1.166,0.132s0.636,0.223,0.876,0.404
	s0.425,0.413,0.554,0.694s0.193,0.615,0.193,1.002c0,0.219-0.03,0.425-0.091,0.618s-0.149,0.37-0.267,0.53s-0.259,0.3-0.425,0.419
	s-0.354,0.214-0.565,0.284c0.25,0.055,0.477,0.146,0.68,0.272s0.377,0.281,0.521,0.463s0.256,0.384,0.334,0.606
	s0.117,0.457,0.117,0.703c0,0.391-0.065,0.735-0.196,1.034s-0.316,0.55-0.557,0.753s-0.528,0.356-0.864,0.46
	s-0.707,0.155-1.113,0.155H193.666z M194.387,39.367h1.969c0.602-0.012,1.067-0.153,1.397-0.425s0.495-0.667,0.495-1.187
	c0-0.547-0.171-0.95-0.513-1.21s-0.858-0.39-1.55-0.39h-1.799V39.367z M194.387,39.971v3.492h2.162c0.313,0,0.593-0.041,0.841-0.123
	s0.459-0.199,0.633-0.352s0.307-0.339,0.398-0.56s0.138-0.47,0.138-0.747c0-0.238-0.039-0.462-0.117-0.671s-0.198-0.391-0.36-0.545
	s-0.365-0.275-0.609-0.363s-0.532-0.132-0.864-0.132H194.387z"/>
<path fill="#FFFFFF" d="M205.73,39.982h-3.99v3.48h4.588v0.609h-5.309v-8.531h5.279v0.615h-4.559v3.217h3.99V39.982z"/>
<path fill="#FFFFFF" d="M213.743,36.156h-2.924v7.916h-0.721v-7.916h-2.918v-0.615h6.563V36.156z"/>
<path fill="#FFFFFF" d="M219.27,41.682h-3.873l-0.879,2.391h-0.756l3.229-8.531h0.686l3.229,8.531h-0.75L219.27,41.682z
	 M215.619,41.066h3.422l-1.711-4.646L215.619,41.066z"/>
<polygon fill-rule="evenodd" clip-rule="evenodd" fill="#FFFFFF" points="20.431,7.391 20.98,17.258 25.613,20.463 26.791,14.954 
	"/>
<polygon fill-rule="evenodd" clip-rule="evenodd" fill="#FFFFFF" points="27.772,14.904 28.772,20.442 33.502,17.375 34.367,7.534 
	"/>
<polygon fill-rule="evenodd" clip-rule="evenodd" fill="#FFFFFF" points="34.238,18.021 31.035,22.638 36.543,23.814 44.104,17.477 
	"/>
<polygon fill-rule="evenodd" clip-rule="evenodd" fill="#FFFFFF" points="36.596,24.826 31.059,25.828 34.125,30.561 43.965,31.425 
	"/>
<polygon fill-rule="evenodd" clip-rule="evenodd" fill="#FFFFFF" points="33.479,31.297 28.861,28.094 27.684,33.602 34.022,41.161 
	"/>
<polygon fill-rule="evenodd" clip-rule="evenodd" fill="#FFFFFF" points="25.706,28.149 20.972,31.216 20.109,41.058 26.708,33.688 
	"/>
<polygon fill-rule="evenodd" clip-rule="evenodd" fill="#FFFFFF" points="17.897,24.741 10.338,31.079 20.203,30.537 23.405,25.918 
	"/>
<polygon fill-rule="evenodd" clip-rule="evenodd" fill="#FFFFFF" points="20.317,17.996 10.476,17.133 17.845,23.733 23.383,22.73 
	"/>
<polygon fill-rule="evenodd" clip-rule="evenodd" fill="#FFFFFF" points="10.288,17.436 4.75,18.438 7.817,23.172 17.656,24.036 "/>
<polygon fill-rule="evenodd" clip-rule="evenodd" fill="#FFFFFF" points="20.081,7.469 15.458,4.26 14.282,9.773 20.629,17.345 "/>
<polygon fill-rule="evenodd" clip-rule="evenodd" fill="#FFFFFF" points="33.058,1.805 28.328,4.873 27.463,14.715 34.058,7.344 "/>
<polygon fill-rule="evenodd" clip-rule="evenodd" fill="#FFFFFF" points="41.721,11.346 34.16,17.684 44.026,17.141 47.23,12.522 
	"/>
<polygon fill-rule="evenodd" clip-rule="evenodd" fill="#FFFFFF" points="46.625,25.384 36.784,24.52 44.153,31.119 49.691,30.118 
	"/>
<polygon fill-rule="evenodd" clip-rule="evenodd" fill="#FFFFFF" points="33.814,31.218 34.358,41.082 38.977,44.286 40.153,38.777 
	"/>
<polygon fill-rule="evenodd" clip-rule="evenodd" fill="#FFFFFF" points="20.379,41.211 21.38,46.75 26.114,43.683 26.979,33.842 
	"/>
<polygon fill-rule="evenodd" clip-rule="evenodd" fill="#FFFFFF" points="10.416,31.416 7.212,36.034 12.722,37.212 20.281,30.873 
	"/>
<polygon fill-rule="evenodd" clip-rule="evenodd" fill="#FFFFFF" points="12.963,37.364 19.799,40.978 20.629,31.017 "/>
<polygon fill-rule="evenodd" clip-rule="evenodd" fill="#FFFFFF" points="7.887,23.45 10.165,30.838 17.795,24.382 "/>
<polygon fill-rule="evenodd" clip-rule="evenodd" fill="#FFFFFF" points="14.135,10.019 10.533,16.844 20.486,17.686 "/>
<polygon fill-rule="evenodd" clip-rule="evenodd" fill="#FFFFFF" points="20.669,7.216 27.117,14.854 28.044,4.938 "/>
<polygon fill-rule="evenodd" clip-rule="evenodd" fill="#FFFFFF" points="34.657,7.59 33.816,17.546 41.48,11.192 "/>
<polygon fill-rule="evenodd" clip-rule="evenodd" fill="#FFFFFF" points="44.284,17.728 36.646,24.175 46.561,25.101 "/>
<polygon fill-rule="evenodd" clip-rule="evenodd" fill="#FFFFFF" points="33.953,30.875 40.306,38.538 43.911,31.714 "/>
<polygon fill-rule="evenodd" clip-rule="evenodd" fill="#FFFFFF" points="27.324,33.703 26.398,43.618 33.774,41.342 "/>
</svg>
